<svg height="512" viewBox="0 0 512 512" width="512" xmlns="http://www.w3.org/2000/svg" xmlns:xlink="http://www.w3.org/1999/xlink"><linearGradient id="New_Gradient_Swatch_1" gradientUnits="userSpaceOnUse" x1="116" x2="460" y1="500" y2="156"><stop offset="0" stop-color="#fbebca"/><stop offset="1" stop-color="#fcf2dc"/></linearGradient><linearGradient id="New_Gradient_Swatch_16" gradientUnits="userSpaceOnUse" x1="52" x2="396" y1="436" y2="92"><stop offset="0" stop-color="#b8e1e3"/><stop offset="1" stop-color="#edf7f8"/></linearGradient><linearGradient id="New_Gradient_Swatch_2" gradientUnits="userSpaceOnUse" x1="168.778" x2="279.222" y1="124.838" y2="14.394"><stop offset="0" stop-color="#e87676"/><stop offset="1" stop-color="#f2b3b3"/></linearGradient><g id="_08-Wish_list" data-name="08-Wish list"><g id="filled"><path d="m112 160h352v336h-352z" fill="url(#New_Gradient_Swatch_1)"/><path d="m48 96h352v336h-352z" fill="url(#New_Gradient_Swatch_16)"/><path d="m224 29.568c-57.41-41.143-102.857 20.572-82.286 61.714 20.324 40.648 82.286 68.718 82.286 68.718s61.962-28.07 82.286-68.718c20.571-41.142-24.876-102.857-82.286-61.714z" fill="url(#New_Gradient_Swatch_2)"/><path d="m464 148h-52v-52a12 12 0 0 0 -12-12h-78.427c5.435-23.127-2.806-49.535-21.762-65.708-21.211-18.092-49.083-19.067-75.811-3.07-26.727-16-54.6-15.021-75.81 3.07-18.957 16.173-27.198 42.581-21.762 65.708h-78.428a12 12 0 0 0 -12 12v336a12 12 0 0 0 12 12h52v52a12 12 0 0 0 12 12h352a12 12 0 0 0 12-12v-336a12 12 0 0 0 -12-12zm-300.233-111.45a34.327 34.327 0 0 1 22.721-8.492c9.633 0 20.062 3.768 30.522 11.264a12 12 0 0 0 13.98 0c19.512-13.984 38.918-14.994 53.243-2.772 14.388 12.274 19.254 33.5 11.32 49.366-15.006 30.012-57.1 53.388-71.56 60.733-14.462-7.33-56.5-30.634-71.546-60.733-7.934-15.869-3.068-37.092 11.32-49.366zm-103.767 71.45h77.753c26 37.549 78.846 61.821 81.3 62.931a12.007 12.007 0 0 0 9.9 0c2.449-1.11 55.3-25.382 81.3-62.931h77.747v312h-328zm392 376h-328v-40h276a12 12 0 0 0 12-12v-260h40z"/><path d="m192 236h128a12 12 0 0 0 0-24h-128a12 12 0 0 0 0 24z"/><circle cx="128" cy="224" r="12"/><path d="m192 300h128a12 12 0 0 0 0-24h-128a12 12 0 0 0 0 24z"/><circle cx="128" cy="288" r="12"/><path d="m192 364h128a12 12 0 0 0 0-24h-128a12 12 0 0 0 0 24z"/><circle cx="128" cy="352" r="12"/></g></g></svg>